<?xml version="1.0" encoding="UTF-8" standalone="no"?>
<!-- Created with Inkscape (http://www.inkscape.org/) -->

<svg
   width="512"
   height="512"
   viewBox="0 0 135.46666 135.46667"
   version="1.1"
   id="svg1"
   inkscape:export-filename="codebg.png"
   inkscape:export-xdpi="96"
   inkscape:export-ydpi="96"
   xml:space="preserve"
   inkscape:version="1.4 (e7c3feb100, 2024-10-09)"
   sodipodi:docname="discord.svg"
   xmlns:inkscape="http://www.inkscape.org/namespaces/inkscape"
   xmlns:sodipodi="http://sodipodi.sourceforge.net/DTD/sodipodi-0.dtd"
   xmlns:xlink="http://www.w3.org/1999/xlink"
   xmlns="http://www.w3.org/2000/svg"
   xmlns:svg="http://www.w3.org/2000/svg"><sodipodi:namedview
     id="namedview1"
     pagecolor="#505050"
     bordercolor="#ffffff"
     borderopacity="1"
     inkscape:showpageshadow="0"
     inkscape:pageopacity="0"
     inkscape:pagecheckerboard="1"
     inkscape:deskcolor="#505050"
     inkscape:document-units="px"
     inkscape:zoom="0.56630543"
     inkscape:cx="656.00642"
     inkscape:cy="248.09933"
     inkscape:window-width="1920"
     inkscape:window-height="1080"
     inkscape:window-x="0"
     inkscape:window-y="0"
     inkscape:window-maximized="1"
     inkscape:current-layer="layer1" /><defs
     id="defs1"><linearGradient
       id="linearGradient112"
       inkscape:collect="always"><stop
         style="stop-color:#0800ff;stop-opacity:1;"
         offset="0"
         id="stop112" /><stop
         style="stop-color:#160079;stop-opacity:1;"
         offset="1"
         id="stop113" /></linearGradient><inkscape:path-effect
       effect="fill_between_many"
       method="originald"
       linkedpaths="#path108,0,1"
       id="path-effect109"
       is_visible="true"
       lpeversion="0"
       join="true"
       close="true"
       autoreverse="true" /><linearGradient
       inkscape:collect="always"
       xlink:href="#linearGradient112"
       id="linearGradient113"
       x1="-98.441383"
       y1="131.95641"
       x2="578.06836"
       y2="131.95641"
       gradientUnits="userSpaceOnUse"
       gradientTransform="matrix(0.18364357,0,0,0.18364357,23.693129,43.50057)" /></defs><g
     inkscape:label="Layer 1"
     inkscape:groupmode="layer"
     id="layer1"><path
       d="m 50.228267,20.685873 -0.886749,0.156963 c -8.238342,1.458159 -16.489064,4.003474 -23.943764,7.386576 l -0.8188,0.371631 -0.820414,1.244336 C 13.403115,45.552736 7.6000308,61.550298 6.0428098,78.682661 c -0.320613,3.527315 -0.391278,5.246887 -0.39137,9.523457 -9.3e-5,4.228872 0.06109,5.798698 0.371819,9.540528 l 0.108377,1.30478 0.901649,0.64258 c 8.9899932,6.405804 18.6509952,11.289834 28.7432562,14.530874 0.721557,0.23172 1.399361,0.45067 1.506261,0.48656 0.106901,0.0358 0.210584,0.0669 0.23042,0.069 0.01982,0.003 0.185288,-0.19835 0.367736,-0.44555 v -9e-5 c 1.596398,-2.16299 3.364357,-4.91621 4.828348,-7.51916 0.660271,-1.17392 1.510622,-2.77252 1.487277,-2.79586 -0.009,-0.009 -0.431319,-0.17906 -0.938473,-0.37789 -3.056248,-1.1982 -6.514007,-2.87466 -9.211604,-4.466114 -0.471503,-0.27817 -0.480017,-0.25339 0.281569,-0.82838 0.36905,-0.27863 0.944341,-0.72813 1.278404,-0.99893 0.664645,-0.53879 0.653511,-0.53392 0.912945,-0.40162 0.315515,0.16089 2.331606,1.02079 3.338595,1.42398 19.230203,7.699594 39.831574,7.270634 58.572279,-1.21956 0.35977,-0.16301 0.67344,-0.29638 0.69703,-0.29638 0.0236,0 0.3961,0.28051 0.82782,0.6233 0.431722,0.34282 1.009042,0.79215 1.282962,0.99855 0.60171,0.45338 0.5985,0.40525 0.0486,0.72855 -2.857592,1.679994 -6.448002,3.404384 -9.620632,4.620614 -0.26057,0.0999 -0.47374,0.19383 -0.47374,0.20868 0,0.11897 1.72996,3.25249 2.54133,4.60315 1.17564,1.95705 3.55128,5.51914 4.09477,6.13987 0.0235,0.0269 2.505252,-0.77114 3.776842,-1.21453 9.76977,-3.40672 18.2897,-7.82998 26.87914,-13.954554 0.37413,-0.26676 0.69915,-0.50162 0.72228,-0.52195 0.0483,-0.0425 0.0887,-0.41129 0.22444,-2.05213 1.99345,-24.090072 -3.76362,-46.131546 -17.46652,-66.87168 l -1.02976,-1.558549 -1.16168,-0.514269 c -6.73259,-2.98074 -13.617102,-5.203666 -20.670168,-6.674061 -1.427004,-0.297494 -3.588174,-0.700169 -3.755309,-0.699703 -0.21104,4.39e-4 -2.042229,3.586794 -3.085118,6.042026 -0.273961,0.644957 -0.129713,0.602894 -1.453214,0.424682 -2.759076,-0.371516 -5.538331,-0.62204 -8.785406,-0.791755 -1.54123,-0.08055 -7.114324,-0.08072 -8.624551,-1.85e-4 -3.325844,0.177201 -5.630722,0.384962 -8.543033,0.770025 -0.758724,0.100312 -1.34511,0.157245 -1.368563,0.132859 -0.02255,-0.02347 -0.263306,-0.534577 -0.53495,-1.135866 -0.522744,-1.157083 -1.654575,-3.45415 -2.323734,-4.716076 z m 37.885871,39.219788 c 5.48386,-0.09868 10.81698,4.256995 11.43835,11.098704 0.735012,8.093049 -5.4105,14.810391 -12.597938,13.770146 -9.557234,-1.383217 -13.224872,-14.738706 -5.983476,-21.788476 2.126597,-2.070313 4.650407,-3.035519 7.143064,-3.080374 z m -41.161168,0.01042 c 5.481102,-0.02778 10.870649,4.305981 11.350186,11.481811 C 58.825364,79.212311 52.75051,85.744748 45.83912,84.80078 37.288895,83.632978 32.954857,72.647747 38.028912,65.004736 c 2.313726,-3.485172 5.635394,-5.071992 8.924058,-5.088655 z"
       style="fill:url(#linearGradient113);fill-rule:evenodd;stroke:#0200a5;stroke-width:0.0728835;stroke-linecap:square;stroke-linejoin:bevel;paint-order:markers fill stroke"
       id="path112" /></g></svg>
